<svg xmlns="http://www.w3.org/2000/svg" xmlns:xlink="http://www.w3.org/1999/xlink" width="510" zoomAndPan="magnify" viewBox="0 0 383.03998 255.12" height="330" preserveAspectRatio="xMidYMid meet" version="1.2"><defs><clipPath id="5d1b6609de"><path d="M 0.179688 0 L 381.363281 0 L 381.363281 246.648438 L 0.179688 246.648438 Z M 0.179688 0 "/></clipPath><clipPath id="1e397c4809"><path d="M 34.550781 0 L 346.964844 0 L 346.964844 245.902344 L 34.550781 245.902344 Z M 34.550781 0 "/></clipPath><clipPath id="3090713c1f"><path d="M 202 234 L 207 234 L 207 245.902344 L 202 245.902344 Z M 202 234 "/></clipPath><clipPath id="3b1ecda788"><path d="M 246 241 L 252 241 L 252 245.902344 L 246 245.902344 Z M 246 241 "/></clipPath><clipPath id="3740935aba"><path d="M 72 226 L 296 226 L 296 245.902344 L 72 245.902344 Z M 72 226 "/></clipPath><clipPath id="5beb670b69"><path d="M 72 226 L 78 226 L 78 245.902344 L 72 245.902344 Z M 72 226 "/></clipPath><clipPath id="8128f4506b"><path d="M 130 229 L 141 229 L 141 245.902344 L 130 245.902344 Z M 130 229 "/></clipPath><clipPath id="0c909477d2"><path d="M 139 234 L 145 234 L 145 245.902344 L 139 245.902344 Z M 139 234 "/></clipPath><clipPath id="13a823a188"><path d="M 35 229 L 41 229 L 41 245.902344 L 35 245.902344 Z M 35 229 "/></clipPath><clipPath id="6d99f43b14"><path d="M 45 229 L 50 229 L 50 245.902344 L 45 245.902344 Z M 45 229 "/></clipPath><clipPath id="981e63d54d"><path d="M 34.550781 160 L 42 160 L 42 166 L 34.550781 166 Z M 34.550781 160 "/></clipPath><clipPath id="e415efa5d1"><path d="M 34.550781 148 L 42 148 L 42 154 L 34.550781 154 Z M 34.550781 148 "/></clipPath><clipPath id="26393f764f"><path d="M 325 245 L 327 245 L 327 245.902344 L 325 245.902344 Z M 325 245 "/></clipPath><clipPath id="273baec524"><path d="M 202 234 L 207 234 L 207 245.902344 L 202 245.902344 Z M 202 234 "/></clipPath><clipPath id="d0be22bfd9"><path d="M 198 234 L 204 234 L 204 245.902344 L 198 245.902344 Z M 198 234 "/></clipPath><clipPath id="5a2146acce"><path d="M 195 234 L 200 234 L 200 245.902344 L 195 245.902344 Z M 195 234 "/></clipPath><clipPath id="9f494dbb39"><path d="M 191 234 L 196 234 L 196 245.902344 L 191 245.902344 Z M 191 234 "/></clipPath><clipPath id="81ec6c33b0"><path d="M 188 234 L 193 234 L 193 245.902344 L 188 245.902344 Z M 188 234 "/></clipPath><clipPath id="db201c17bb"><path d="M 184 234 L 189 234 L 189 245.902344 L 184 245.902344 Z M 184 234 "/></clipPath><clipPath id="90fda517f5"><path d="M 180 234 L 186 234 L 186 245.902344 L 180 245.902344 Z M 180 234 "/></clipPath><clipPath id="c14af862a2"><path d="M 177 234 L 182 234 L 182 245.902344 L 177 245.902344 Z M 177 234 "/></clipPath><clipPath id="ca98a11f66"><path d="M 170 234 L 175 234 L 175 245.902344 L 170 245.902344 Z M 170 234 "/></clipPath><clipPath id="7318353d3d"><path d="M 166 234 L 172 234 L 172 245.902344 L 166 245.902344 Z M 166 234 "/></clipPath><clipPath id="99840c0396"><path d="M 173 234 L 179 234 L 179 245.902344 L 173 245.902344 Z M 173 234 "/></clipPath><clipPath id="baf90769ae"><path d="M 34.550781 147 L 41 147 L 41 152 L 34.550781 152 Z M 34.550781 147 "/></clipPath><clipPath id="330028696f"><path d="M 34.550781 94 L 45 94 L 45 100 L 34.550781 100 Z M 34.550781 94 "/></clipPath><clipPath id="f3701cfa82"><path d="M 74 237 L 80 237 L 80 245.902344 L 74 245.902344 Z M 74 237 "/></clipPath><clipPath id="43f90d2952"><path d="M 75 237 L 80 237 L 80 245.902344 L 75 245.902344 Z M 75 237 "/></clipPath><clipPath id="9db9f92ca5"><path d="M 34.550781 30 L 43 30 L 43 35 L 34.550781 35 Z M 34.550781 30 "/></clipPath><clipPath id="454f1cf1ea"><path d="M 34.550781 124 L 42 124 L 42 129 L 34.550781 129 Z M 34.550781 124 "/></clipPath><clipPath id="3ebabb9b26"><path d="M 34.550781 137 L 42 137 L 42 143 L 34.550781 143 Z M 34.550781 137 "/></clipPath><clipPath id="7020d694af"><path d="M 34.550781 6 L 342 6 L 342 245.902344 L 34.550781 245.902344 Z M 34.550781 6 "/></clipPath><clipPath id="336acf8a3e"><path d="M 76 229 L 82 229 L 82 245.902344 L 76 245.902344 Z M 76 229 "/></clipPath><clipPath id="e9471d70df"><path d="M 250 243 L 252 243 L 252 245.902344 L 250 245.902344 Z M 250 243 "/></clipPath><clipPath id="c0fc9ec4e1"><path d="M 248 232 L 293 232 L 293 245.902344 L 248 245.902344 Z M 248 232 "/></clipPath><clipPath id="f158dc0785"><path d="M 324 231 L 341 231 L 341 245.902344 L 324 245.902344 Z M 324 231 "/></clipPath><clipPath id="77fccdf57a"><path d="M 240 240 L 252 240 L 252 245.902344 L 240 245.902344 Z M 240 240 "/></clipPath><clipPath id="eadbe8ad24"><path d="M 240 234 L 252 234 L 252 245.902344 L 240 245.902344 Z M 240 234 "/></clipPath></defs><g id="2c82221caa"><g clip-rule="nonzero" clip-path="url(#5d1b6609de)"><path style=" stroke:none;fill-rule:nonzero;fill:#ffffff;fill-opacity:1;" d="M 0.179688 0 L 381.714844 0 L 381.714844 246.648438 L 0.179688 246.648438 Z M 0.179688 0 "/></g><g clip-rule="nonzero" clip-path="url(#1e397c4809)"><path style=" stroke:none;fill-rule:nonzero;fill:#ffffff;fill-opacity:1;" d="M 34.550781 0 L 346.964844 0 L 346.964844 246.023438 L 34.550781 246.023438 Z M 34.550781 0 "/></g><path style="fill:none;stroke-width:0.838;stroke-linecap:butt;stroke-linejoin:miter;stroke:#000000;stroke-opacity:1;stroke-miterlimit:4;" d="M 637.625568 657.343297 L 637.507411 424.851158 " transform="matrix(0.462837,0,0,0.46349,34.551023,-189.898695)"/><path style="fill:none;stroke-width:0.838;stroke-linecap:butt;stroke-linejoin:miter;stroke:#000000;stroke-opacity:1;stroke-miterlimit:4;" d="M 637.625568 657.343297 L 650.38653 657.343297 L 650.420289 729.427153 " transform="matrix(0.462837,0,0,0.46349,34.551023,-189.898695)"/><path style="fill:none;stroke-width:0.838;stroke-linecap:butt;stroke-linejoin:miter;stroke:#000000;stroke-opacity:1;stroke-miterlimit:4;" d="M 636.815349 772.805571 L 641.803264 772.805571 " transform="matrix(0.462837,0,0,0.46349,34.551023,-189.898695)"/><path style="fill:none;stroke-width:0.838;stroke-linecap:butt;stroke-linejoin:miter;stroke:#000000;stroke-opacity:1;stroke-miterlimit:4;" d="M 650.420289 729.427153 L 636.798469 729.435581 L 636.815349 772.805571 " transform="matrix(0.462837,0,0,0.46349,34.551023,-189.898695)"/><path style="fill:none;stroke-width:0.838;stroke-linecap:butt;stroke-linejoin:miter;stroke:#000000;stroke-opacity:1;stroke-miterlimit:4;" d="M 641.803264 772.864566 L 641.811704 780.517102 L 627.919811 780.660377 L 627.632858 780.660377 L 620.872586 780.618237 L 621.210178 728.238819 L 607.883751 728.247247 L 607.731834 657.377008 L 621.049822 657.36858 L 620.847267 569.339131 L 632.190344 569.330703 L 632.266302 540.987664 L 620.923225 540.996092 " transform="matrix(0.462837,0,0,0.46349,34.551023,-189.898695)"/><path style="fill:none;stroke-width:0.838;stroke-linecap:butt;stroke-linejoin:miter;stroke:#000000;stroke-opacity:1;stroke-miterlimit:4;" d="M 620.990744 540.996092 L 620.940105 435.756864 " transform="matrix(0.462837,0,0,0.46349,34.551023,-189.898695)"/><path style="fill:none;stroke-width:0.838;stroke-linecap:butt;stroke-linejoin:miter;stroke:#000000;stroke-opacity:1;stroke-miterlimit:4;" d="M 620.940105 435.756864 L 611.014912 435.765292 " transform="matrix(0.462837,0,0,0.46349,34.551023,-189.898695)"/><path style="fill:none;stroke-width:0.838;stroke-linecap:butt;stroke-linejoin:miter;stroke:#000000;stroke-opacity:1;stroke-miterlimit:4;" d="M 611.014912 435.765292 L 611.014912 431.509201 " transform="matrix(0.462837,0,0,0.46349,34.551023,-189.898695)"/><path style="fill:none;stroke-width:0.838;stroke-linecap:butt;stroke-linejoin:miter;stroke:#000000;stroke-opacity:1;stroke-miterlimit:4;" d="M 611.014912 431.509201 L 620.653152 431.509201 " transform="matrix(0.462837,0,0,0.46349,34.551023,-189.898695)"/><path style="fill:none;stroke-width:0.838;stroke-linecap:butt;stroke-linejoin:miter;stroke:#000000;stroke-opacity:1;stroke-miterlimit:4;" d="M 620.653152 431.509201 L 620.644712 424.851158 " transform="matrix(0.462837,0,0,0.46349,34.551023,-189.898695)"/><path style="fill:none;stroke-width:0.838;stroke-linecap:butt;stroke-linejoin:miter;stroke:#000000;stroke-opacity:1;stroke-miterlimit:4;" d="M 571.331023 435.782148 L 571.322583 431.534485 " transform="matrix(0.462837,0,0,0.46349,34.551023,-189.898695)"/><path style="fill:none;stroke-width:0.838;stroke-linecap:butt;stroke-linejoin:miter;stroke:#000000;stroke-opacity:1;stroke-miterlimit:4;" d="M 571.331023 435.782148 L 554.316407 435.790576 L 554.316407 431.542913 L 557.152176 431.542913 L 557.152176 424.851158 " transform="matrix(0.462837,0,0,0.46349,34.551023,-189.898695)"/><path style="fill:none;stroke-width:0.838;stroke-linecap:butt;stroke-linejoin:miter;stroke:#000000;stroke-opacity:1;stroke-miterlimit:4;" d="M 525.967154 435.807432 L 525.967154 431.559769 L 492.233316 431.576624 L 492.233316 428.736421 L 487.979662 428.744849 " transform="matrix(0.462837,0,0,0.46349,34.551023,-189.898695)"/><path style="fill:none;stroke-width:0.838;stroke-linecap:butt;stroke-linejoin:miter;stroke:#000000;stroke-opacity:1;stroke-miterlimit:4;" d="M 571.322583 431.534485 L 563.389181 431.534485 L 563.389181 424.851158 " transform="matrix(0.462837,0,0,0.46349,34.551023,-189.898695)"/><path style="fill:none;stroke-width:0.838;stroke-linecap:butt;stroke-linejoin:miter;stroke:#000000;stroke-opacity:1;stroke-miterlimit:4;" d="M 487.979662 428.744849 L 487.979662 431.576624 L 426.74899 431.610336 L 426.74899 424.851158 " transform="matrix(0.462837,0,0,0.46349,34.551023,-189.898695)"/><path style="fill:none;stroke-width:0.838;stroke-linecap:butt;stroke-linejoin:miter;stroke:#000000;stroke-opacity:1;stroke-miterlimit:4;" d="M 525.967154 435.807432 L 426.75743 435.857999 " transform="matrix(0.462837,0,0,0.46349,34.551023,-189.898695)"/><path style="fill:none;stroke-width:0.838;stroke-linecap:butt;stroke-linejoin:miter;stroke:#000000;stroke-opacity:1;stroke-miterlimit:4;" d="M 426.75743 435.857999 L 426.782749 489.720729 " transform="matrix(0.462837,0,0,0.46349,34.551023,-189.898695)"/><path style="fill:none;stroke-width:0.838;stroke-linecap:butt;stroke-linejoin:miter;stroke:#000000;stroke-opacity:1;stroke-miterlimit:4;" d="M 426.782749 489.720729 L 429.618518 489.720729 " transform="matrix(0.462837,0,0,0.46349,34.551023,-189.898695)"/><path style="fill:none;stroke-width:0.838;stroke-linecap:butt;stroke-linejoin:miter;stroke:#000000;stroke-opacity:1;stroke-miterlimit:4;" d="M 429.618518 489.720729 L 429.635398 524.022295 " transform="matrix(0.462837,0,0,0.46349,34.551023,-189.898695)"/><path style="fill:none;stroke-width:0.838;stroke-linecap:butt;stroke-linejoin:miter;stroke:#000000;stroke-opacity:1;stroke-miterlimit:4;" d="M 429.635398 524.022295 L 418.292321 524.022295 " transform="matrix(0.462837,0,0,0.46349,34.551023,-189.898695)"/><path style="fill:none;stroke-width:0.838;stroke-linecap:butt;stroke-linejoin:miter;stroke:#000000;stroke-opacity:1;stroke-miterlimit:4;" d="M 418.292321 524.022295 L 418.283881 503.618341 " transform="matrix(0.462837,0,0,0.46349,34.551023,-189.898695)"/><path style="fill:none;stroke-width:0.838;stroke-linecap:butt;stroke-linejoin:miter;stroke:#000000;stroke-opacity:1;stroke-miterlimit:4;" d="M 225.806044 503.711048 L 225.814483 524.409979 " transform="matrix(0.462837,0,0,0.46349,34.551023,-189.898695)"/><path style="fill:none;stroke-width:0.838;stroke-linecap:butt;stroke-linejoin:miter;stroke:#000000;stroke-opacity:1;stroke-miterlimit:4;" d="M 225.814483 524.409979 L 214.758359 524.409979 " transform="matrix(0.462837,0,0,0.46349,34.551023,-189.898695)"/><path style="fill:none;stroke-width:0.838;stroke-linecap:butt;stroke-linejoin:miter;stroke:#000000;stroke-opacity:1;stroke-miterlimit:4;" d="M 214.758359 524.409979 L 214.74992 510.242673 " transform="matrix(0.462837,0,0,0.46349,34.551023,-189.898695)"/><path style="fill:none;stroke-width:0.838;stroke-linecap:butt;stroke-linejoin:miter;stroke:#000000;stroke-opacity:1;stroke-miterlimit:4;" d="M 214.74992 510.242673 L 209.9308 510.242673 " transform="matrix(0.462837,0,0,0.46349,34.551023,-189.898695)"/><path style="fill:none;stroke-width:0.838;stroke-linecap:butt;stroke-linejoin:miter;stroke:#000000;stroke-opacity:1;stroke-miterlimit:4;" d="M 209.9308 510.242673 L 209.9308 505.986582 " transform="matrix(0.462837,0,0,0.46349,34.551023,-189.898695)"/><path style="fill:none;stroke-width:0.838;stroke-linecap:butt;stroke-linejoin:miter;stroke:#000000;stroke-opacity:1;stroke-miterlimit:4;" d="M 209.9308 505.986582 L 214.74992 505.986582 " transform="matrix(0.462837,0,0,0.46349,34.551023,-189.898695)"/><path style="fill:none;stroke-width:0.838;stroke-linecap:butt;stroke-linejoin:miter;stroke:#000000;stroke-opacity:1;stroke-miterlimit:4;" d="M 214.74992 505.986582 L 214.74148 490.11684 " transform="matrix(0.462837,0,0,0.46349,34.551023,-189.898695)"/><path style="fill:none;stroke-width:0.838;stroke-linecap:butt;stroke-linejoin:miter;stroke:#000000;stroke-opacity:1;stroke-miterlimit:4;" d="M 214.74148 490.11684 L 217.011783 490.108412 " transform="matrix(0.462837,0,0,0.46349,34.551023,-189.898695)"/><path style="fill:none;stroke-width:0.838;stroke-linecap:butt;stroke-linejoin:miter;stroke:#000000;stroke-opacity:1;stroke-miterlimit:4;" d="M 217.011783 490.108412 L 216.978024 424.851158 " transform="matrix(0.462837,0,0,0.46349,34.551023,-189.898695)"/><path style="fill:none;stroke-width:0.838;stroke-linecap:butt;stroke-linejoin:miter;stroke:#000000;stroke-opacity:1;stroke-miterlimit:4;" d="M 14.144565 424.851158 L 14.482156 490.394961 " transform="matrix(0.462837,0,0,0.46349,34.551023,-189.898695)"/><path style="fill:none;stroke-width:0.838;stroke-linecap:butt;stroke-linejoin:miter;stroke:#000000;stroke-opacity:1;stroke-miterlimit:4;" d="M 19.731705 424.851158 L 19.832983 490.217975 " transform="matrix(0.462837,0,0,0.46349,34.551023,-189.898695)"/><path style="fill:none;stroke-width:0.838;stroke-linecap:butt;stroke-linejoin:miter;stroke:#000000;stroke-opacity:1;stroke-miterlimit:4;" d="M 49.709837 510.293241 L 49.709837 506.03715 L 187.253086 506.003438 " transform="matrix(0.462837,0,0,0.46349,34.551023,-189.898695)"/><path style="fill:none;stroke-width:0.838;stroke-linecap:butt;stroke-linejoin:miter;stroke:#000000;stroke-opacity:1;stroke-miterlimit:4;" d="M 187.253086 506.003438 L 187.253086 510.251101 " transform="matrix(0.462837,0,0,0.46349,34.551023,-189.898695)"/><path style="fill:none;stroke-width:0.838;stroke-linecap:butt;stroke-linejoin:miter;stroke:#000000;stroke-opacity:1;stroke-miterlimit:4;" d="M 187.253086 510.251101 L 49.709837 510.293241 " transform="matrix(0.462837,0,0,0.46349,34.551023,-189.898695)"/><path style="fill:none;stroke-width:0.838;stroke-linecap:butt;stroke-linejoin:miter;stroke:#000000;stroke-opacity:1;stroke-miterlimit:4;" d="M 662.970256 911.132747 L 626.940795 911.149603 L 626.932355 891.874988 L 640.815809 891.86656 L 640.832688 911.141175 L 629.489611 911.149603 " transform="matrix(0.462837,0,0,0.46349,34.551023,-189.898695)"/><g clip-rule="nonzero" clip-path="url(#3090713c1f)"><path style="fill:none;stroke-width:0.838;stroke-linecap:butt;stroke-linejoin:miter;stroke:#000000;stroke-opacity:1;stroke-miterlimit:4;" d="M 367.003721 940.166874 L 366.995281 920.066324 " transform="matrix(0.462837,0,0,0.46349,34.551023,-189.898695)"/></g><path style="fill:none;stroke-width:0.838;stroke-linecap:butt;stroke-linejoin:miter;stroke:#000000;stroke-opacity:1;stroke-miterlimit:4;" d="M 366.995281 920.066324 L 366.986841 907.879576 L 463.369236 907.829009 " transform="matrix(0.462837,0,0,0.46349,34.551023,-189.898695)"/><path style="fill:none;stroke-width:0.838;stroke-linecap:butt;stroke-linejoin:miter;stroke:#000000;stroke-opacity:1;stroke-miterlimit:4;" d="M 463.377676 907.829009 L 463.377676 920.302306 " transform="matrix(0.462837,0,0,0.46349,34.551023,-189.898695)"/><g clip-rule="nonzero" clip-path="url(#3b1ecda788)"><path style="fill:none;stroke-width:0.838;stroke-linecap:butt;stroke-linejoin:miter;stroke:#000000;stroke-opacity:1;stroke-miterlimit:4;" d="M 463.386116 934.478039 L 463.394556 940.166874 " transform="matrix(0.462837,0,0,0.46349,34.551023,-189.898695)"/></g><g clip-rule="nonzero" clip-path="url(#3740935aba)"><path style="fill:none;stroke-width:0.838;stroke-linecap:butt;stroke-linejoin:miter;stroke:#000000;stroke-opacity:1;stroke-miterlimit:4;" d="M 558.350626 940.166874 L 558.333747 902.11489 L 87.756408 902.3593 " transform="matrix(0.462837,0,0,0.46349,34.551023,-189.898695)"/></g><g clip-rule="nonzero" clip-path="url(#5beb670b69)"><path style="fill:none;stroke-width:0.838;stroke-linecap:butt;stroke-linejoin:miter;stroke:#000000;stroke-opacity:1;stroke-miterlimit:4;" d="M 87.756408 902.3593 L 87.781727 940.166874 " transform="matrix(0.462837,0,0,0.46349,34.551023,-189.898695)"/></g><g clip-rule="nonzero" clip-path="url(#8128f4506b)"><path style="fill:none;stroke-width:0.838;stroke-linecap:butt;stroke-linejoin:miter;stroke:#000000;stroke-opacity:1;stroke-miterlimit:4;" d="M 213.061962 910.509082 L 224.405039 910.509082 L 224.413478 940.166874 " transform="matrix(0.462837,0,0,0.46349,34.551023,-189.898695)"/></g><g clip-rule="nonzero" clip-path="url(#0c909477d2)"><path style="fill:none;stroke-width:0.838;stroke-linecap:butt;stroke-linejoin:miter;stroke:#000000;stroke-opacity:1;stroke-miterlimit:4;" d="M 232.194964 940.166874 L 232.186524 920.142175 " transform="matrix(0.462837,0,0,0.46349,34.551023,-189.898695)"/></g><path style="fill:none;stroke-width:0.838;stroke-linecap:butt;stroke-linejoin:miter;stroke:#000000;stroke-opacity:1;stroke-miterlimit:4;" d="M 28.390929 661.371834 L 7.384293 661.38869 " transform="matrix(0.462837,0,0,0.46349,34.551023,-189.898695)"/><path style="fill:none;stroke-width:0.838;stroke-linecap:butt;stroke-linejoin:miter;stroke:#000000;stroke-opacity:1;stroke-miterlimit:4;" d="M 7.384293 661.38869 L 7.392733 732.722463 " transform="matrix(0.462837,0,0,0.46349,34.551023,-189.898695)"/><path style="fill:none;stroke-width:0.838;stroke-linecap:butt;stroke-linejoin:miter;stroke:#000000;stroke-opacity:1;stroke-miterlimit:4;" d="M 7.392733 732.722463 L 28.424688 732.705607 " transform="matrix(0.462837,0,0,0.46349,34.551023,-189.898695)"/><path style="fill:none;stroke-width:0.838;stroke-linecap:butt;stroke-linejoin:miter;stroke:#000000;stroke-opacity:1;stroke-miterlimit:4;" d="M 28.517526 908.739222 L 7.856922 908.74765 " transform="matrix(0.462837,0,0,0.46349,34.551023,-189.898695)"/><g clip-rule="nonzero" clip-path="url(#13a823a188)"><path style="fill:none;stroke-width:0.838;stroke-linecap:butt;stroke-linejoin:miter;stroke:#000000;stroke-opacity:1;stroke-miterlimit:4;" d="M 7.856922 908.74765 L 7.806283 940.166874 " transform="matrix(0.462837,0,0,0.46349,34.551023,-189.898695)"/></g><g clip-rule="nonzero" clip-path="url(#6d99f43b14)"><path style="fill:none;stroke-width:0.838;stroke-linecap:butt;stroke-linejoin:miter;stroke:#000000;stroke-opacity:1;stroke-miterlimit:4;" d="M 28.517526 908.739222 L 28.534406 940.166874 " transform="matrix(0.462837,0,0,0.46349,34.551023,-189.898695)"/></g><path style="fill:none;stroke-width:0.838;stroke-linecap:butt;stroke-linejoin:miter;stroke:#000000;stroke-opacity:1;stroke-miterlimit:4;" d="M 28.424688 732.705607 L 28.390929 661.371834 " transform="matrix(0.462837,0,0,0.46349,34.551023,-189.898695)"/><path style="fill:none;stroke-width:0.838;stroke-linecap:butt;stroke-linejoin:miter;stroke:#000000;stroke-opacity:1;stroke-miterlimit:4;" d="M 418.283881 503.618341 L 418.241682 424.851158 " transform="matrix(0.462837,0,0,0.46349,34.551023,-189.898695)"/><path style="fill:none;stroke-width:0.838;stroke-linecap:butt;stroke-linejoin:miter;stroke:#000000;stroke-opacity:1;stroke-miterlimit:4;" d="M 401.260826 482.5233 L 401.235507 424.851158 " transform="matrix(0.462837,0,0,0.46349,34.551023,-189.898695)"/><path style="fill:none;stroke-width:0.838;stroke-linecap:butt;stroke-linejoin:miter;stroke:#000000;stroke-opacity:1;stroke-miterlimit:4;" d="M 225.806044 503.711048 L 225.763845 424.851158 " transform="matrix(0.462837,0,0,0.46349,34.551023,-189.898695)"/><path style="fill:none;stroke-width:0.838;stroke-linecap:butt;stroke-linejoin:miter;stroke:#000000;stroke-opacity:1;stroke-miterlimit:4;" d="M 242.80378 482.607579 L 242.77002 424.851158 " transform="matrix(0.462837,0,0,0.46349,34.551023,-189.898695)"/><path style="fill:none;stroke-width:0.838;stroke-linecap:butt;stroke-linejoin:miter;stroke:#000000;stroke-opacity:1;stroke-miterlimit:4;" d="M 375.907699 502.219309 L 375.907699 503.635197 " transform="matrix(0.462837,0,0,0.46349,34.551023,-189.898695)"/><path style="fill:none;stroke-width:0.838;stroke-linecap:butt;stroke-linejoin:miter;stroke:#000000;stroke-opacity:1;stroke-miterlimit:4;" d="M 418.283881 503.618341 L 255.539422 503.70262 " transform="matrix(0.462837,0,0,0.46349,34.551023,-189.898695)"/><path style="fill:none;stroke-width:0.838;stroke-linecap:butt;stroke-linejoin:miter;stroke:#000000;stroke-opacity:1;stroke-miterlimit:4;" d="M 418.283881 502.194026 L 255.539422 502.278305 " transform="matrix(0.462837,0,0,0.46349,34.551023,-189.898695)"/><path style="fill:none;stroke-width:0.838;stroke-linecap:butt;stroke-linejoin:miter;stroke:#000000;stroke-opacity:1;stroke-miterlimit:4;" d="M 345.887368 502.236165 L 345.887368 503.652053 " transform="matrix(0.462837,0,0,0.46349,34.551023,-189.898695)"/><path style="fill:none;stroke-width:0.838;stroke-linecap:butt;stroke-linejoin:miter;stroke:#000000;stroke-opacity:1;stroke-miterlimit:4;" d="M 315.867037 502.253021 L 315.867037 503.668909 " transform="matrix(0.462837,0,0,0.46349,34.551023,-189.898695)"/><path style="fill:none;stroke-width:0.838;stroke-linecap:butt;stroke-linejoin:miter;stroke:#000000;stroke-opacity:1;stroke-miterlimit:4;" d="M 285.846706 502.269877 L 285.846706 503.685765 " transform="matrix(0.462837,0,0,0.46349,34.551023,-189.898695)"/><path style="fill:none;stroke-width:0.838;stroke-linecap:butt;stroke-linejoin:miter;stroke:#000000;stroke-opacity:1;stroke-miterlimit:4;" d="M 255.539422 502.278305 L 255.539422 503.70262 " transform="matrix(0.462837,0,0,0.46349,34.551023,-189.898695)"/><path style="fill:none;stroke-width:0.838;stroke-linecap:butt;stroke-linejoin:miter;stroke:#000000;stroke-opacity:1;stroke-miterlimit:4;" d="M 227.207049 472.274969 L 228.228263 472.274969 L 228.245143 502.295161 L 227.223928 502.295161 Z M 227.207049 472.274969 " transform="matrix(0.462837,0,0,0.46349,34.551023,-189.898695)"/><path style="fill:none;stroke-width:0.838;stroke-linecap:butt;stroke-linejoin:miter;stroke:#000000;stroke-opacity:1;stroke-miterlimit:4;" d="M 255.539422 502.278305 C 257.033265 487.259781 246.061538 473.876271 231.038713 472.384532 C 229.764305 472.258113 228.481457 472.224402 227.207049 472.274969 " transform="matrix(0.462837,0,0,0.46349,34.551023,-189.898695)"/><path style="fill:none;stroke-width:0.838;stroke-linecap:butt;stroke-linejoin:miter;stroke:#000000;stroke-opacity:1;stroke-miterlimit:4;" d="M 227.223928 503.711048 L 225.806044 503.711048 " transform="matrix(0.462837,0,0,0.46349,34.551023,-189.898695)"/><path style="fill:none;stroke-width:0.838;stroke-linecap:butt;stroke-linejoin:miter;stroke:#000000;stroke-opacity:1;stroke-miterlimit:4;" d="M 227.223928 502.295161 L 225.806044 502.295161 " transform="matrix(0.462837,0,0,0.46349,34.551023,-189.898695)"/><path style="fill:none;stroke-width:0.838;stroke-linecap:butt;stroke-linejoin:miter;stroke:#000000;stroke-opacity:1;stroke-miterlimit:4;" d="M 227.223928 502.295161 L 227.223928 503.711048 " transform="matrix(0.462837,0,0,0.46349,34.551023,-189.898695)"/><path style="fill:none;stroke-width:0.838;stroke-linecap:butt;stroke-linejoin:miter;stroke:#000000;stroke-opacity:1;stroke-miterlimit:4;" d="M 96.272156 910.568077 L 213.061962 910.509082 " transform="matrix(0.462837,0,0,0.46349,34.551023,-189.898695)"/><path style="fill:none;stroke-width:0.838;stroke-linecap:butt;stroke-linejoin:miter;stroke:#000000;stroke-opacity:1;stroke-miterlimit:4;" d="M 213.061962 910.509082 L 213.070401 928.367809 L 224.413478 928.367809 " transform="matrix(0.462837,0,0,0.46349,34.551023,-189.898695)"/><path style="fill:none;stroke-width:0.838;stroke-linecap:butt;stroke-linejoin:miter;stroke:#000000;stroke-opacity:1;stroke-miterlimit:4;" d="M 10.675811 821.721121 L 10.650492 761.621743 " transform="matrix(0.462837,0,0,0.46349,34.551023,-189.898695)"/><path style="fill:none;stroke-width:0.838;stroke-linecap:butt;stroke-linejoin:miter;stroke:#000000;stroke-opacity:1;stroke-miterlimit:4;" d="M 12.076816 791.650363 L 12.059937 761.621743 " transform="matrix(0.462837,0,0,0.46349,34.551023,-189.898695)"/><path style="fill:none;stroke-width:0.838;stroke-linecap:butt;stroke-linejoin:miter;stroke:#000000;stroke-opacity:1;stroke-miterlimit:4;" d="M 11.258157 850.072588 L 11.291916 908.74765 " transform="matrix(0.462837,0,0,0.46349,34.551023,-189.898695)"/><path style="fill:none;stroke-width:0.838;stroke-linecap:butt;stroke-linejoin:miter;stroke:#000000;stroke-opacity:1;stroke-miterlimit:4;" d="M 9.840272 850.072588 L 9.874031 908.74765 " transform="matrix(0.462837,0,0,0.46349,34.551023,-189.898695)"/><path style="fill:none;stroke-width:0.838;stroke-linecap:butt;stroke-linejoin:miter;stroke:#000000;stroke-opacity:1;stroke-miterlimit:4;" d="M 9.857152 880.396184 L 11.275036 880.396184 " transform="matrix(0.462837,0,0,0.46349,34.551023,-189.898695)"/><path style="fill:none;stroke-width:0.838;stroke-linecap:butt;stroke-linejoin:miter;stroke:#000000;stroke-opacity:1;stroke-miterlimit:4;" d="M 10.650492 761.621743 L 12.059937 761.621743 " transform="matrix(0.462837,0,0,0.46349,34.551023,-189.898695)"/><path style="fill:none;stroke-width:0.838;stroke-linecap:butt;stroke-linejoin:miter;stroke:#000000;stroke-opacity:1;stroke-miterlimit:4;" d="M 9.840272 850.072588 L 11.258157 850.072588 " transform="matrix(0.462837,0,0,0.46349,34.551023,-189.898695)"/><g clip-rule="nonzero" clip-path="url(#981e63d54d)"><path style="fill:none;stroke-width:0.838;stroke-linecap:butt;stroke-linejoin:miter;stroke:#000000;stroke-opacity:1;stroke-miterlimit:4;" d="M 0.277991 760.610395 L 10.642052 760.601967 L 10.650492 761.621743 L 0.277991 761.630171 " transform="matrix(0.462837,0,0,0.46349,34.551023,-189.898695)"/></g><g clip-rule="nonzero" clip-path="url(#e415efa5d1)"><path style="fill:none;stroke-width:0.838;stroke-linecap:butt;stroke-linejoin:miter;stroke:#000000;stroke-opacity:1;stroke-miterlimit:4;" d="M 10.633612 734.138351 C 7.080461 734.138351 3.569509 734.829439 0.277991 736.169476 " transform="matrix(0.462837,0,0,0.46349,34.551023,-189.898695)"/></g><path style="fill:none;stroke-width:0.838;stroke-linecap:butt;stroke-linejoin:miter;stroke:#000000;stroke-opacity:1;stroke-miterlimit:4;" d="M 10.675811 821.721121 L 12.093696 821.721121 " transform="matrix(0.462837,0,0,0.46349,34.551023,-189.898695)"/><path style="fill:none;stroke-width:0.838;stroke-linecap:butt;stroke-linejoin:miter;stroke:#000000;stroke-opacity:1;stroke-miterlimit:4;" d="M 10.633612 734.138351 L 10.633612 732.714035 " transform="matrix(0.462837,0,0,0.46349,34.551023,-189.898695)"/><path style="fill:none;stroke-width:0.838;stroke-linecap:butt;stroke-linejoin:miter;stroke:#000000;stroke-opacity:1;stroke-miterlimit:4;" d="M 12.051497 734.138351 L 12.051497 732.714035 " transform="matrix(0.462837,0,0,0.46349,34.551023,-189.898695)"/><path style="fill:none;stroke-width:0.838;stroke-linecap:butt;stroke-linejoin:miter;stroke:#000000;stroke-opacity:1;stroke-miterlimit:4;" d="M 12.051497 734.138351 L 10.633612 734.138351 " transform="matrix(0.462837,0,0,0.46349,34.551023,-189.898695)"/><path style="fill:none;stroke-width:0.838;stroke-linecap:butt;stroke-linejoin:miter;stroke:#000000;stroke-opacity:1;stroke-miterlimit:4;" d="M 13.52846 850.06416 L 12.110576 850.072588 L 12.127455 878.415626 L 13.54534 878.415626 Z M 13.52846 850.06416 " transform="matrix(0.462837,0,0,0.46349,34.551023,-189.898695)"/><path style="fill:none;stroke-width:0.838;stroke-linecap:butt;stroke-linejoin:miter;stroke:#000000;stroke-opacity:1;stroke-miterlimit:4;" d="M 13.511581 821.721121 L 12.093696 821.721121 L 12.076816 791.675646 L 13.494701 791.675646 Z M 13.511581 821.721121 " transform="matrix(0.462837,0,0,0.46349,34.551023,-189.898695)"/><path style="fill:none;stroke-width:0.838;stroke-linecap:butt;stroke-linejoin:miter;stroke:#000000;stroke-opacity:1;stroke-miterlimit:4;" d="M 437.644758 659.231147 L 437.678517 729.536716 L 413.017453 729.545144 L 412.975254 659.248003 L 437.644758 659.231147 " transform="matrix(0.462837,0,0,0.46349,34.551023,-189.898695)"/><path style="fill:none;stroke-width:0.838;stroke-linecap:butt;stroke-linejoin:miter;stroke:#000000;stroke-opacity:1;stroke-miterlimit:4;" d="M 312.575519 551.573111 L 281.390497 551.589967 " transform="matrix(0.462837,0,0,0.46349,34.551023,-189.898695)"/><path style="fill:none;stroke-width:0.838;stroke-linecap:butt;stroke-linejoin:miter;stroke:#000000;stroke-opacity:1;stroke-miterlimit:4;" d="M 312.592398 582.756353 L 281.407376 582.773209 " transform="matrix(0.462837,0,0,0.46349,34.551023,-189.898695)"/><path style="fill:none;stroke-width:0.838;stroke-linecap:butt;stroke-linejoin:miter;stroke:#000000;stroke-opacity:1;stroke-miterlimit:4;" d="M 281.390497 551.589967 L 281.390497 558.677833 " transform="matrix(0.462837,0,0,0.46349,34.551023,-189.898695)"/><path style="fill:none;stroke-width:0.838;stroke-linecap:butt;stroke-linejoin:miter;stroke:#000000;stroke-opacity:1;stroke-miterlimit:4;" d="M 312.575519 551.573111 L 312.575519 558.660977 " transform="matrix(0.462837,0,0,0.46349,34.551023,-189.898695)"/><path style="fill:none;stroke-width:0.838;stroke-linecap:butt;stroke-linejoin:miter;stroke:#000000;stroke-opacity:1;stroke-miterlimit:4;" d="M 308.321865 555.829202 L 285.644151 555.83763 " transform="matrix(0.462837,0,0,0.46349,34.551023,-189.898695)"/><path style="fill:none;stroke-width:0.838;stroke-linecap:butt;stroke-linejoin:miter;stroke:#000000;stroke-opacity:1;stroke-miterlimit:4;" d="M 308.330305 578.500262 L 285.65259 578.517118 " transform="matrix(0.462837,0,0,0.46349,34.551023,-189.898695)"/><path style="fill:none;stroke-width:0.838;stroke-linecap:butt;stroke-linejoin:miter;stroke:#000000;stroke-opacity:1;stroke-miterlimit:4;" d="M 285.644151 555.83763 L 285.644151 558.669405 " transform="matrix(0.462837,0,0,0.46349,34.551023,-189.898695)"/><path style="fill:none;stroke-width:0.838;stroke-linecap:butt;stroke-linejoin:miter;stroke:#000000;stroke-opacity:1;stroke-miterlimit:4;" d="M 308.321865 555.829202 L 308.321865 558.660977 " transform="matrix(0.462837,0,0,0.46349,34.551023,-189.898695)"/><path style="fill:none;stroke-width:0.838;stroke-linecap:butt;stroke-linejoin:miter;stroke:#000000;stroke-opacity:1;stroke-miterlimit:4;" d="M 312.575519 558.660977 L 308.321865 558.660977 " transform="matrix(0.462837,0,0,0.46349,34.551023,-189.898695)"/><path style="fill:none;stroke-width:0.838;stroke-linecap:butt;stroke-linejoin:miter;stroke:#000000;stroke-opacity:1;stroke-miterlimit:4;" d="M 312.583958 575.668486 L 308.330305 575.668486 " transform="matrix(0.462837,0,0,0.46349,34.551023,-189.898695)"/><path style="fill:none;stroke-width:0.838;stroke-linecap:butt;stroke-linejoin:miter;stroke:#000000;stroke-opacity:1;stroke-miterlimit:4;" d="M 285.644151 558.669405 L 281.390497 558.677833 " transform="matrix(0.462837,0,0,0.46349,34.551023,-189.898695)"/><path style="fill:none;stroke-width:0.838;stroke-linecap:butt;stroke-linejoin:miter;stroke:#000000;stroke-opacity:1;stroke-miterlimit:4;" d="M 285.65259 575.676914 L 285.65259 578.517118 " transform="matrix(0.462837,0,0,0.46349,34.551023,-189.898695)"/><path style="fill:none;stroke-width:0.838;stroke-linecap:butt;stroke-linejoin:miter;stroke:#000000;stroke-opacity:1;stroke-miterlimit:4;" d="M 281.398937 575.685342 L 281.407376 582.773209 " transform="matrix(0.462837,0,0,0.46349,34.551023,-189.898695)"/><path style="fill:none;stroke-width:0.838;stroke-linecap:butt;stroke-linejoin:miter;stroke:#000000;stroke-opacity:1;stroke-miterlimit:4;" d="M 285.65259 575.676914 L 281.398937 575.685342 " transform="matrix(0.462837,0,0,0.46349,34.551023,-189.898695)"/><path style="fill:none;stroke-width:0.838;stroke-linecap:butt;stroke-linejoin:miter;stroke:#000000;stroke-opacity:1;stroke-miterlimit:4;" d="M 308.330305 575.668486 L 308.330305 578.500262 " transform="matrix(0.462837,0,0,0.46349,34.551023,-189.898695)"/><path style="fill:none;stroke-width:0.838;stroke-linecap:butt;stroke-linejoin:miter;stroke:#000000;stroke-opacity:1;stroke-miterlimit:4;" d="M 312.583958 575.668486 L 312.592398 582.756353 " transform="matrix(0.462837,0,0,0.46349,34.551023,-189.898695)"/><path style="fill:none;stroke-width:0.838;stroke-linecap:butt;stroke-linejoin:miter;stroke:#000000;stroke-opacity:1;stroke-miterlimit:4;" d="M 312.583958 575.668486 L 312.575519 558.660977 " transform="matrix(0.462837,0,0,0.46349,34.551023,-189.898695)"/><path style="fill:none;stroke-width:0.838;stroke-linecap:butt;stroke-linejoin:miter;stroke:#000000;stroke-opacity:1;stroke-miterlimit:4;" d="M 308.330305 575.668486 L 308.321865 558.660977 " transform="matrix(0.462837,0,0,0.46349,34.551023,-189.898695)"/><path style="fill:none;stroke-width:0.838;stroke-linecap:butt;stroke-linejoin:miter;stroke:#000000;stroke-opacity:1;stroke-miterlimit:4;" d="M 281.398937 575.685342 L 281.390497 558.677833 " transform="matrix(0.462837,0,0,0.46349,34.551023,-189.898695)"/><path style="fill:none;stroke-width:0.838;stroke-linecap:butt;stroke-linejoin:miter;stroke:#000000;stroke-opacity:1;stroke-miterlimit:4;" d="M 285.65259 575.676914 L 285.644151 558.669405 " transform="matrix(0.462837,0,0,0.46349,34.551023,-189.898695)"/><path style="fill:none;stroke-width:0.838;stroke-linecap:butt;stroke-linejoin:miter;stroke:#000000;stroke-opacity:1;stroke-miterlimit:4;" d="M 418.368279 659.248003 L 418.292321 524.022295 " transform="matrix(0.462837,0,0,0.46349,34.551023,-189.898695)"/><path style="fill:none;stroke-width:0.838;stroke-linecap:butt;stroke-linejoin:miter;stroke:#000000;stroke-opacity:1;stroke-miterlimit:4;" d="M 103.70761 506.045578 L 103.70761 504.242006 " transform="matrix(0.462837,0,0,0.46349,34.551023,-189.898695)"/><path style="fill:none;stroke-width:0.838;stroke-linecap:butt;stroke-linejoin:miter;stroke:#000000;stroke-opacity:1;stroke-miterlimit:4;" d="M 103.69917 481.562519 L 103.682291 448.786403 " transform="matrix(0.462837,0,0,0.46349,34.551023,-189.898695)"/><path style="fill:none;stroke-width:0.838;stroke-linecap:butt;stroke-linejoin:miter;stroke:#000000;stroke-opacity:1;stroke-miterlimit:4;" d="M 104.846982 506.045578 L 104.838542 504.242006 " transform="matrix(0.462837,0,0,0.46349,34.551023,-189.898695)"/><path style="fill:none;stroke-width:0.838;stroke-linecap:butt;stroke-linejoin:miter;stroke:#000000;stroke-opacity:1;stroke-miterlimit:4;" d="M 104.830102 481.562519 L 104.813223 448.777975 L 103.682291 448.786403 " transform="matrix(0.462837,0,0,0.46349,34.551023,-189.898695)"/><path style="fill:none;stroke-width:0.838;stroke-linecap:butt;stroke-linejoin:miter;stroke:#000000;stroke-opacity:1;stroke-miterlimit:4;" d="M 19.773904 449.957881 L 69.6615 449.932598 " transform="matrix(0.462837,0,0,0.46349,34.551023,-189.898695)"/><path style="fill:none;stroke-width:0.838;stroke-linecap:butt;stroke-linejoin:miter;stroke:#000000;stroke-opacity:1;stroke-miterlimit:4;" d="M 19.765465 448.828542 L 69.6615 448.803259 " transform="matrix(0.462837,0,0,0.46349,34.551023,-189.898695)"/><path style="fill:none;stroke-width:0.838;stroke-linecap:butt;stroke-linejoin:miter;stroke:#000000;stroke-opacity:1;stroke-miterlimit:4;" d="M 182.231411 506.003438 L 182.206092 449.92417 " transform="matrix(0.462837,0,0,0.46349,34.551023,-189.898695)"/><path style="fill:none;stroke-width:0.838;stroke-linecap:butt;stroke-linejoin:miter;stroke:#000000;stroke-opacity:1;stroke-miterlimit:4;" d="M 183.362343 506.003438 L 183.337023 448.786403 " transform="matrix(0.462837,0,0,0.46349,34.551023,-189.898695)"/><path style="fill:none;stroke-width:0.838;stroke-linecap:butt;stroke-linejoin:miter;stroke:#000000;stroke-opacity:1;stroke-miterlimit:4;" d="M 182.206092 449.92417 L 177.960877 449.92417 " transform="matrix(0.462837,0,0,0.46349,34.551023,-189.898695)"/><path style="fill:none;stroke-width:0.838;stroke-linecap:butt;stroke-linejoin:miter;stroke:#000000;stroke-opacity:1;stroke-miterlimit:4;" d="M 155.283163 449.941026 L 104.813223 449.966309 " transform="matrix(0.462837,0,0,0.46349,34.551023,-189.898695)"/><path style="fill:none;stroke-width:0.838;stroke-linecap:butt;stroke-linejoin:miter;stroke:#000000;stroke-opacity:1;stroke-miterlimit:4;" d="M 183.337023 448.786403 L 177.960877 448.786403 " transform="matrix(0.462837,0,0,0.46349,34.551023,-189.898695)"/><path style="fill:none;stroke-width:0.838;stroke-linecap:butt;stroke-linejoin:miter;stroke:#000000;stroke-opacity:1;stroke-miterlimit:4;" d="M 155.283163 448.803259 L 104.813223 448.828542 " transform="matrix(0.462837,0,0,0.46349,34.551023,-189.898695)"/><path style="fill:none;stroke-width:0.838;stroke-linecap:butt;stroke-linejoin:miter;stroke:#000000;stroke-opacity:1;stroke-miterlimit:4;" d="M 177.960877 448.794831 L 177.960877 449.92417 " transform="matrix(0.462837,0,0,0.46349,34.551023,-189.898695)"/><path style="fill:none;stroke-width:0.838;stroke-linecap:butt;stroke-linejoin:miter;stroke:#000000;stroke-opacity:1;stroke-miterlimit:4;" d="M 155.283163 448.803259 L 155.283163 449.932598 " transform="matrix(0.462837,0,0,0.46349,34.551023,-189.898695)"/><path style="fill:none;stroke-width:0.838;stroke-linecap:butt;stroke-linejoin:miter;stroke:#000000;stroke-opacity:1;stroke-miterlimit:4;" d="M 104.838542 504.242006 L 103.70761 504.242006 " transform="matrix(0.462837,0,0,0.46349,34.551023,-189.898695)"/><path style="fill:none;stroke-width:0.838;stroke-linecap:butt;stroke-linejoin:miter;stroke:#000000;stroke-opacity:1;stroke-miterlimit:4;" d="M 104.830102 481.562519 L 103.69917 481.562519 " transform="matrix(0.462837,0,0,0.46349,34.551023,-189.898695)"/><path style="fill:none;stroke-width:0.838;stroke-linecap:butt;stroke-linejoin:miter;stroke:#000000;stroke-opacity:1;stroke-miterlimit:4;" d="M 69.6615 449.932598 L 69.6615 448.803259 " transform="matrix(0.462837,0,0,0.46349,34.551023,-189.898695)"/><path style="fill:none;stroke-width:0.838;stroke-linecap:butt;stroke-linejoin:miter;stroke:#000000;stroke-opacity:1;stroke-miterlimit:4;" d="M 69.695259 452.873936 L 103.682291 452.85708 L 103.631652 445.769214 L 69.686819 445.786069 Z M 69.695259 452.873936 " transform="matrix(0.462837,0,0,0.46349,34.551023,-189.898695)"/><g clip-rule="nonzero" clip-path="url(#26393f764f)"><path style="fill:none;stroke-width:0.838;stroke-linecap:butt;stroke-linejoin:miter;stroke:#000000;stroke-opacity:1;stroke-miterlimit:4;" d="M 629.506491 940.166874 L 629.506491 939.079674 L 630.637423 939.079674 L 630.637423 940.166874 " transform="matrix(0.462837,0,0,0.46349,34.551023,-189.898695)"/></g><path style="fill:none;stroke-width:0.838;stroke-linecap:butt;stroke-linejoin:miter;stroke:#000000;stroke-opacity:1;stroke-miterlimit:4;" d="M 467.63133 920.302306 L 467.62289 915.194996 " transform="matrix(0.462837,0,0,0.46349,34.551023,-189.898695)"/><g clip-rule="nonzero" clip-path="url(#273baec524)"><path style="fill:none;stroke-width:0.838;stroke-linecap:butt;stroke-linejoin:miter;stroke:#000000;stroke-opacity:1;stroke-miterlimit:4;" d="M 367.003721 940.166874 L 366.995281 920.066324 " transform="matrix(0.462837,0,0,0.46349,34.551023,-189.898695)"/></g><g clip-rule="nonzero" clip-path="url(#d0be22bfd9)"><path style="fill:none;stroke-width:0.838;stroke-linecap:butt;stroke-linejoin:miter;stroke:#000000;stroke-opacity:1;stroke-miterlimit:4;" d="M 359.348832 940.166874 L 359.340392 920.074752 " transform="matrix(0.462837,0,0,0.46349,34.551023,-189.898695)"/></g><g clip-rule="nonzero" clip-path="url(#5a2146acce)"><path style="fill:none;stroke-width:0.838;stroke-linecap:butt;stroke-linejoin:miter;stroke:#000000;stroke-opacity:1;stroke-miterlimit:4;" d="M 351.693943 940.166874 L 351.685503 920.074752 " transform="matrix(0.462837,0,0,0.46349,34.551023,-189.898695)"/></g><g clip-rule="nonzero" clip-path="url(#9f494dbb39)"><path style="fill:none;stroke-width:0.838;stroke-linecap:butt;stroke-linejoin:miter;stroke:#000000;stroke-opacity:1;stroke-miterlimit:4;" d="M 344.047493 940.166874 L 344.030614 920.08318 " transform="matrix(0.462837,0,0,0.46349,34.551023,-189.898695)"/></g><g clip-rule="nonzero" clip-path="url(#81ec6c33b0)"><path style="fill:none;stroke-width:0.838;stroke-linecap:butt;stroke-linejoin:miter;stroke:#000000;stroke-opacity:1;stroke-miterlimit:4;" d="M 336.392604 940.166874 L 336.384165 920.08318 " transform="matrix(0.462837,0,0,0.46349,34.551023,-189.898695)"/></g><g clip-rule="nonzero" clip-path="url(#db201c17bb)"><path style="fill:none;stroke-width:0.838;stroke-linecap:butt;stroke-linejoin:miter;stroke:#000000;stroke-opacity:1;stroke-miterlimit:4;" d="M 328.737715 940.166874 L 328.720836 920.091608 " transform="matrix(0.462837,0,0,0.46349,34.551023,-189.898695)"/></g><g clip-rule="nonzero" clip-path="url(#90fda517f5)"><path style="fill:none;stroke-width:0.838;stroke-linecap:butt;stroke-linejoin:miter;stroke:#000000;stroke-opacity:1;stroke-miterlimit:4;" d="M 321.082826 940.166874 L 321.074387 920.091608 " transform="matrix(0.462837,0,0,0.46349,34.551023,-189.898695)"/></g><g clip-rule="nonzero" clip-path="url(#c14af862a2)"><path style="fill:none;stroke-width:0.838;stroke-linecap:butt;stroke-linejoin:miter;stroke:#000000;stroke-opacity:1;stroke-miterlimit:4;" d="M 313.427937 940.166874 L 313.419498 920.100036 " transform="matrix(0.462837,0,0,0.46349,34.551023,-189.898695)"/></g><g clip-rule="nonzero" clip-path="url(#ca98a11f66)"><path style="fill:none;stroke-width:0.838;stroke-linecap:butt;stroke-linejoin:miter;stroke:#000000;stroke-opacity:1;stroke-miterlimit:4;" d="M 298.118159 940.166874 L 298.10972 920.108464 " transform="matrix(0.462837,0,0,0.46349,34.551023,-189.898695)"/></g><g clip-rule="nonzero" clip-path="url(#7318353d3d)"><path style="fill:none;stroke-width:0.838;stroke-linecap:butt;stroke-linejoin:miter;stroke:#000000;stroke-opacity:1;stroke-miterlimit:4;" d="M 290.46327 940.166874 L 290.454831 920.108464 " transform="matrix(0.462837,0,0,0.46349,34.551023,-189.898695)"/></g><g clip-rule="nonzero" clip-path="url(#99840c0396)"><path style="fill:none;stroke-width:0.838;stroke-linecap:butt;stroke-linejoin:miter;stroke:#000000;stroke-opacity:1;stroke-miterlimit:4;" d="M 305.773048 940.166874 L 305.764609 920.100036 " transform="matrix(0.462837,0,0,0.46349,34.551023,-189.898695)"/></g><path style="fill:none;stroke-width:0.838;stroke-linecap:butt;stroke-linejoin:miter;stroke:#000000;stroke-opacity:1;stroke-miterlimit:4;" d="M 366.995281 920.066324 L 232.186524 920.142175 " transform="matrix(0.462837,0,0,0.46349,34.551023,-189.898695)"/><path style="fill:none;stroke-width:0.838;stroke-linecap:butt;stroke-linejoin:miter;stroke:#000000;stroke-opacity:1;stroke-miterlimit:4;" d="M 640.824249 895.549554 L 662.970256 895.541126 " transform="matrix(0.462837,0,0,0.46349,34.551023,-189.898695)"/><path style="fill:none;stroke-width:0.838;stroke-linecap:butt;stroke-linejoin:miter;stroke:#000000;stroke-opacity:1;stroke-miterlimit:4;" d="M 640.824249 893.847117 L 662.970256 893.838689 " transform="matrix(0.462837,0,0,0.46349,34.551023,-189.898695)"/><g clip-rule="nonzero" clip-path="url(#baf90769ae)"><path style="fill:none;stroke-width:0.838;stroke-linecap:butt;stroke-linejoin:miter;stroke:#000000;stroke-opacity:1;stroke-miterlimit:4;" d="M 0.277991 732.705607 L 7.392733 732.722463 " transform="matrix(0.462837,0,0,0.46349,34.551023,-189.898695)"/></g><g clip-rule="nonzero" clip-path="url(#330028696f)"><path style="fill:none;stroke-width:0.838;stroke-linecap:butt;stroke-linejoin:miter;stroke:#000000;stroke-opacity:1;stroke-miterlimit:4;" d="M 0.277991 618.996337 L 7.384293 618.90363 L 15.95068 618.895202 " transform="matrix(0.462837,0,0,0.46349,34.551023,-189.898695)"/></g><path style="fill:none;stroke-width:0.838;stroke-linecap:butt;stroke-linejoin:miter;stroke:#000000;stroke-opacity:1;stroke-miterlimit:4;" d="M 629.489611 913.576839 L 629.489611 911.149603 " transform="matrix(0.462837,0,0,0.46349,34.551023,-189.898695)"/><path style="fill:none;stroke-width:0.838;stroke-linecap:butt;stroke-linejoin:miter;stroke:#000000;stroke-opacity:1;stroke-miterlimit:4;" d="M 630.628983 913.576839 L 630.628983 911.149603 " transform="matrix(0.462837,0,0,0.46349,34.551023,-189.898695)"/><path style="fill:none;stroke-width:0.838;stroke-linecap:butt;stroke-linejoin:miter;stroke:#000000;stroke-opacity:1;stroke-miterlimit:4;" d="M 630.628983 913.576839 L 629.489611 913.576839 " transform="matrix(0.462837,0,0,0.46349,34.551023,-189.898695)"/><path style="fill:none;stroke-width:0.838;stroke-linecap:butt;stroke-linejoin:miter;stroke:#000000;stroke-opacity:1;stroke-miterlimit:4;" d="M 628.603434 834.413544 L 662.970256 834.38826 " transform="matrix(0.462837,0,0,0.46349,34.551023,-189.898695)"/><path style="fill:none;stroke-width:0.838;stroke-linecap:butt;stroke-linejoin:miter;stroke:#000000;stroke-opacity:1;stroke-miterlimit:4;" d="M 628.603434 839.512425 L 662.970256 839.495569 " transform="matrix(0.462837,0,0,0.46349,34.551023,-189.898695)"/><path style="fill:none;stroke-width:0.838;stroke-linecap:butt;stroke-linejoin:miter;stroke:#000000;stroke-opacity:1;stroke-miterlimit:4;" d="M 628.603434 839.512425 L 628.603434 834.413544 " transform="matrix(0.462837,0,0,0.46349,34.551023,-189.898695)"/><path style="fill:none;stroke-width:0.838;stroke-linecap:butt;stroke-linejoin:miter;stroke:#000000;stroke-opacity:1;stroke-miterlimit:4;" d="M 24.711181 524.671244 L 13.655057 524.679672 L 13.638177 490.394961 L 24.694302 490.386533 Z M 24.711181 524.671244 " transform="matrix(0.462837,0,0,0.46349,34.551023,-189.898695)"/><path style="fill:none;stroke-width:0.838;stroke-linecap:butt;stroke-linejoin:miter;stroke:#000000;stroke-opacity:1;stroke-miterlimit:4;" d="M 15.900041 524.679672 L 15.967559 661.380262 " transform="matrix(0.462837,0,0,0.46349,34.551023,-189.898695)"/><path style="fill:none;stroke-width:0.838;stroke-linecap:butt;stroke-linejoin:miter;stroke:#000000;stroke-opacity:1;stroke-miterlimit:4;" d="M 16.75246 524.679672 L 16.819978 661.380262 " transform="matrix(0.462837,0,0,0.46349,34.551023,-189.898695)"/><path style="fill:none;stroke-width:0.838;stroke-linecap:butt;stroke-linejoin:miter;stroke:#000000;stroke-opacity:1;stroke-miterlimit:4;" d="M 646.023159 723.139937 L 612.745069 723.165221 L 613.091101 667.094381 L 646.37763 667.077525 Z M 646.023159 723.139937 " transform="matrix(0.462837,0,0,0.46349,34.551023,-189.898695)"/><path style="fill:none;stroke-width:0.838;stroke-linecap:butt;stroke-linejoin:miter;stroke:#000000;stroke-opacity:1;stroke-miterlimit:4;" d="M 463.377676 920.302306 L 467.63133 920.302306 " transform="matrix(0.462837,0,0,0.46349,34.551023,-189.898695)"/><path style="fill:none;stroke-width:0.838;stroke-linecap:butt;stroke-linejoin:miter;stroke:#000000;stroke-opacity:1;stroke-miterlimit:4;" d="M 463.386116 934.478039 L 467.63977 934.478039 " transform="matrix(0.462837,0,0,0.46349,34.551023,-189.898695)"/><path style="fill:none;stroke-width:0.838;stroke-linecap:butt;stroke-linejoin:miter;stroke:#000000;stroke-opacity:1;stroke-miterlimit:4;" d="M 96.280595 926.168126 L 87.773288 926.168126 " transform="matrix(0.462837,0,0,0.46349,34.551023,-189.898695)"/><g clip-rule="nonzero" clip-path="url(#f3701cfa82)"><path style="fill:none;stroke-width:0.838;stroke-linecap:butt;stroke-linejoin:miter;stroke:#000000;stroke-opacity:1;stroke-miterlimit:4;" d="M 91.596512 925.890005 L 91.604952 940.166874 " transform="matrix(0.462837,0,0,0.46349,34.551023,-189.898695)"/></g><g clip-rule="nonzero" clip-path="url(#43f90d2952)"><path style="fill:none;stroke-width:0.838;stroke-linecap:butt;stroke-linejoin:miter;stroke:#000000;stroke-opacity:1;stroke-miterlimit:4;" d="M 92.448931 925.890005 L 92.457371 940.166874 " transform="matrix(0.462837,0,0,0.46349,34.551023,-189.898695)"/></g><path style="fill:none;stroke-width:0.838;stroke-linecap:butt;stroke-linejoin:miter;stroke:#000000;stroke-opacity:1;stroke-miterlimit:4;" d="M 28.38249 661.371834 L 7.384293 661.38869 " transform="matrix(0.462837,0,0,0.46349,34.551023,-189.898695)"/><path style="fill:none;stroke-width:0.838;stroke-linecap:butt;stroke-linejoin:miter;stroke:#000000;stroke-opacity:1;stroke-miterlimit:4;" d="M 7.384293 661.38869 L 7.392733 732.722463 " transform="matrix(0.462837,0,0,0.46349,34.551023,-189.898695)"/><path style="fill:none;stroke-width:0.838;stroke-linecap:butt;stroke-linejoin:miter;stroke:#000000;stroke-opacity:1;stroke-miterlimit:4;" d="M 7.392733 732.722463 L 28.416249 732.705607 " transform="matrix(0.462837,0,0,0.46349,34.551023,-189.898695)"/><path style="fill:none;stroke-width:0.838;stroke-linecap:butt;stroke-linejoin:miter;stroke:#000000;stroke-opacity:1;stroke-miterlimit:4;" d="M 28.416249 732.705607 L 28.38249 661.371834 " transform="matrix(0.462837,0,0,0.46349,34.551023,-189.898695)"/><path style="fill:none;stroke-width:0.838;stroke-linecap:butt;stroke-linejoin:miter;stroke:#000000;stroke-opacity:1;stroke-miterlimit:4;" d="M 620.872586 780.618237 L 641.811704 780.744656 " transform="matrix(0.462837,0,0,0.46349,34.551023,-189.898695)"/><path style="fill:none;stroke-width:0.838;stroke-linecap:butt;stroke-linejoin:miter;stroke:#000000;stroke-opacity:1;stroke-miterlimit:4;" d="M 27.032123 510.301669 L 24.702741 510.310097 " transform="matrix(0.462837,0,0,0.46349,34.551023,-189.898695)"/><path style="fill:none;stroke-width:0.838;stroke-linecap:butt;stroke-linejoin:miter;stroke:#000000;stroke-opacity:1;stroke-miterlimit:4;" d="M 27.032123 506.054005 L 24.702741 506.054005 " transform="matrix(0.462837,0,0,0.46349,34.551023,-189.898695)"/><path style="fill:none;stroke-width:0.838;stroke-linecap:butt;stroke-linejoin:miter;stroke:#000000;stroke-opacity:1;stroke-miterlimit:4;" d="M 27.032123 506.054005 L 27.032123 510.301669 " transform="matrix(0.462837,0,0,0.46349,34.551023,-189.898695)"/><path style="fill:none;stroke-width:0.838;stroke-linecap:butt;stroke-linejoin:miter;stroke:#000000;stroke-opacity:1;stroke-miterlimit:4;" d="M 233.823844 659.34071 L 233.857603 729.637851 L 208.344119 729.654706 L 208.31036 659.349138 L 233.823844 659.34071 " transform="matrix(0.462837,0,0,0.46349,34.551023,-189.898695)"/><path style="fill:none;stroke-width:0.838;stroke-linecap:butt;stroke-linejoin:miter;stroke:#000000;stroke-opacity:1;stroke-miterlimit:4;" d="M 15.672167 424.851158 L 15.705926 482.177756 " transform="matrix(0.462837,0,0,0.46349,34.551023,-189.898695)"/><path style="fill:none;stroke-width:0.838;stroke-linecap:butt;stroke-linejoin:miter;stroke:#000000;stroke-opacity:1;stroke-miterlimit:4;" d="M 16.524585 424.851158 L 16.549905 482.177756 " transform="matrix(0.462837,0,0,0.46349,34.551023,-189.898695)"/><path style="fill:none;stroke-width:0.838;stroke-linecap:butt;stroke-linejoin:miter;stroke:#000000;stroke-opacity:1;stroke-miterlimit:4;" d="M 14.439957 482.177756 L 19.824543 482.177756 " transform="matrix(0.462837,0,0,0.46349,34.551023,-189.898695)"/><path style="fill:none;stroke-width:0.838;stroke-linecap:butt;stroke-linejoin:miter;stroke:#000000;stroke-opacity:1;stroke-miterlimit:4;" d="M 412.983693 661.793229 L 233.823844 661.885936 " transform="matrix(0.462837,0,0,0.46349,34.551023,-189.898695)"/><path style="fill:none;stroke-width:0.838;stroke-linecap:butt;stroke-linejoin:miter;stroke:#000000;stroke-opacity:1;stroke-miterlimit:4;" d="M 225.882002 659.34071 L 225.814483 524.409979 " transform="matrix(0.462837,0,0,0.46349,34.551023,-189.898695)"/><g clip-rule="nonzero" clip-path="url(#9db9f92ca5)"><path style="fill:none;stroke-width:0.838;stroke-linecap:butt;stroke-linejoin:miter;stroke:#000000;stroke-opacity:1;stroke-miterlimit:4;" d="M 0.277991 480.382612 L 12.211853 480.374184 " transform="matrix(0.462837,0,0,0.46349,34.551023,-189.898695)"/></g><path style="fill:none;stroke-width:0.838;stroke-linecap:butt;stroke-linejoin:miter;stroke:#000000;stroke-opacity:1;stroke-miterlimit:4;" d="M 628.603434 839.512425 L 628.611873 862.191913 " transform="matrix(0.462837,0,0,0.46349,34.551023,-189.898695)"/><path style="fill:none;stroke-width:0.838;stroke-linecap:butt;stroke-linejoin:miter;stroke:#000000;stroke-opacity:1;stroke-miterlimit:4;" d="M 629.168899 839.512425 L 629.185779 862.191913 " transform="matrix(0.462837,0,0,0.46349,34.551023,-189.898695)"/><path style="fill:none;stroke-width:0.838;stroke-linecap:butt;stroke-linejoin:miter;stroke:#000000;stroke-opacity:1;stroke-miterlimit:4;" d="M 641.811704 780.744656 L 662.970256 780.694088 " transform="matrix(0.462837,0,0,0.46349,34.551023,-189.898695)"/><path style="fill:none;stroke-width:0.838;stroke-linecap:butt;stroke-linejoin:miter;stroke:#000000;stroke-opacity:1;stroke-miterlimit:4;" d="M 242.80378 482.607579 L 401.260826 482.5233 " transform="matrix(0.462837,0,0,0.46349,34.551023,-189.898695)"/><path style="fill:none;stroke-width:0.838;stroke-linecap:butt;stroke-linejoin:miter;stroke:#000000;stroke-opacity:1;stroke-miterlimit:4;" d="M 646.023159 723.139937 L 613.091101 667.094381 " transform="matrix(0.462837,0,0,0.46349,34.551023,-189.898695)"/><path style="fill:none;stroke-width:0.838;stroke-linecap:butt;stroke-linejoin:miter;stroke:#000000;stroke-opacity:1;stroke-miterlimit:4;" d="M 612.745069 723.165221 L 646.37763 667.077525 " transform="matrix(0.462837,0,0,0.46349,34.551023,-189.898695)"/><path style="fill:none;stroke-width:0.838;stroke-linecap:butt;stroke-linejoin:miter;stroke:#000000;stroke-opacity:1;stroke-miterlimit:4;" d="M 326.796564 641.136439 L 264.42652 641.17015 " transform="matrix(0.462837,0,0,0.46349,34.551023,-189.898695)"/><path style="fill:none;stroke-width:0.838;stroke-linecap:butt;stroke-linejoin:miter;stroke:#000000;stroke-opacity:1;stroke-miterlimit:4;" d="M 418.300761 537.624931 L 264.375881 537.700782 " transform="matrix(0.462837,0,0,0.46349,34.551023,-189.898695)"/><path style="fill:none;stroke-width:0.838;stroke-linecap:butt;stroke-linejoin:miter;stroke:#000000;stroke-opacity:1;stroke-miterlimit:4;" d="M 326.779684 607.121421 L 264.40964 607.155133 " transform="matrix(0.462837,0,0,0.46349,34.551023,-189.898695)"/><path style="fill:none;stroke-width:0.838;stroke-linecap:butt;stroke-linejoin:miter;stroke:#000000;stroke-opacity:1;stroke-miterlimit:4;" d="M 326.779684 614.209288 L 264.41808 614.242999 " transform="matrix(0.462837,0,0,0.46349,34.551023,-189.898695)"/><path style="fill:none;stroke-width:0.838;stroke-linecap:butt;stroke-linejoin:miter;stroke:#000000;stroke-opacity:1;stroke-miterlimit:4;" d="M 326.779684 621.297154 L 264.41808 621.330866 " transform="matrix(0.462837,0,0,0.46349,34.551023,-189.898695)"/><path style="fill:none;stroke-width:0.838;stroke-linecap:butt;stroke-linejoin:miter;stroke:#000000;stroke-opacity:1;stroke-miterlimit:4;" d="M 326.788124 628.385021 L 264.41808 628.418733 " transform="matrix(0.462837,0,0,0.46349,34.551023,-189.898695)"/><path style="fill:none;stroke-width:0.838;stroke-linecap:butt;stroke-linejoin:miter;stroke:#000000;stroke-opacity:1;stroke-miterlimit:4;" d="M 326.788124 635.472888 L 264.42652 635.506599 " transform="matrix(0.462837,0,0,0.46349,34.551023,-189.898695)"/><path style="fill:none;stroke-width:0.838;stroke-linecap:butt;stroke-linejoin:miter;stroke:#000000;stroke-opacity:1;stroke-miterlimit:4;" d="M 333.826908 537.66707 L 333.860668 600.033554 " transform="matrix(0.462837,0,0,0.46349,34.551023,-189.898695)"/><path style="fill:none;stroke-width:0.838;stroke-linecap:butt;stroke-linejoin:miter;stroke:#000000;stroke-opacity:1;stroke-miterlimit:4;" d="M 340.916332 537.66707 L 340.941651 600.025127 " transform="matrix(0.462837,0,0,0.46349,34.551023,-189.898695)"/><path style="fill:none;stroke-width:0.838;stroke-linecap:butt;stroke-linejoin:miter;stroke:#000000;stroke-opacity:1;stroke-miterlimit:4;" d="M 347.997315 537.658643 L 348.031074 600.025127 " transform="matrix(0.462837,0,0,0.46349,34.551023,-189.898695)"/><path style="fill:none;stroke-width:0.838;stroke-linecap:butt;stroke-linejoin:miter;stroke:#000000;stroke-opacity:1;stroke-miterlimit:4;" d="M 355.086738 537.658643 L 355.120497 600.025127 " transform="matrix(0.462837,0,0,0.46349,34.551023,-189.898695)"/><path style="fill:none;stroke-width:0.838;stroke-linecap:butt;stroke-linejoin:miter;stroke:#000000;stroke-opacity:1;stroke-miterlimit:4;" d="M 362.176161 537.650215 L 362.20992 600.016699 " transform="matrix(0.462837,0,0,0.46349,34.551023,-189.898695)"/><path style="fill:none;stroke-width:0.838;stroke-linecap:butt;stroke-linejoin:miter;stroke:#000000;stroke-opacity:1;stroke-miterlimit:4;" d="M 369.257144 537.650215 L 369.290904 600.016699 " transform="matrix(0.462837,0,0,0.46349,34.551023,-189.898695)"/><path style="fill:none;stroke-width:0.838;stroke-linecap:butt;stroke-linejoin:miter;stroke:#000000;stroke-opacity:1;stroke-miterlimit:4;" d="M 376.346568 537.641787 L 376.380327 600.008271 " transform="matrix(0.462837,0,0,0.46349,34.551023,-189.898695)"/><path style="fill:none;stroke-width:0.838;stroke-linecap:butt;stroke-linejoin:miter;stroke:#000000;stroke-opacity:1;stroke-miterlimit:4;" d="M 383.435991 537.641787 L 383.46975 600.008271 " transform="matrix(0.462837,0,0,0.46349,34.551023,-189.898695)"/><path style="fill:none;stroke-width:0.838;stroke-linecap:butt;stroke-linejoin:miter;stroke:#000000;stroke-opacity:1;stroke-miterlimit:4;" d="M 390.516974 537.641787 L 390.550733 599.999843 " transform="matrix(0.462837,0,0,0.46349,34.551023,-189.898695)"/><path style="fill:none;stroke-width:0.838;stroke-linecap:butt;stroke-linejoin:miter;stroke:#000000;stroke-opacity:1;stroke-miterlimit:4;" d="M 397.606397 537.633359 L 397.640156 599.999843 " transform="matrix(0.462837,0,0,0.46349,34.551023,-189.898695)"/><path style="fill:none;stroke-width:0.838;stroke-linecap:butt;stroke-linejoin:miter;stroke:#000000;stroke-opacity:1;stroke-miterlimit:4;" d="M 404.69582 537.633359 L 404.729579 599.999843 " transform="matrix(0.462837,0,0,0.46349,34.551023,-189.898695)"/><path style="fill:none;stroke-width:0.838;stroke-linecap:butt;stroke-linejoin:miter;stroke:#000000;stroke-opacity:1;stroke-miterlimit:4;" d="M 411.785243 537.624931 L 411.810563 599.991415 " transform="matrix(0.462837,0,0,0.46349,34.551023,-189.898695)"/><path style="fill:none;stroke-width:0.838;stroke-linecap:butt;stroke-linejoin:miter;stroke:#000000;stroke-opacity:1;stroke-miterlimit:4;" d="M 264.375881 537.700782 L 264.42652 646.842129 " transform="matrix(0.462837,0,0,0.46349,34.551023,-189.898695)"/><path style="fill:none;stroke-width:0.838;stroke-linecap:butt;stroke-linejoin:miter;stroke:#000000;stroke-opacity:1;stroke-miterlimit:4;" d="M 418.33452 599.991415 L 264.40964 600.067266 " transform="matrix(0.462837,0,0,0.46349,34.551023,-189.898695)"/><path style="fill:none;stroke-width:0.838;stroke-linecap:butt;stroke-linejoin:miter;stroke:#000000;stroke-opacity:1;stroke-miterlimit:4;" d="M 326.796564 646.808417 L 326.737485 537.66707 " transform="matrix(0.462837,0,0,0.46349,34.551023,-189.898695)"/><path style="fill:none;stroke-width:0.838;stroke-linecap:butt;stroke-linejoin:miter;stroke:#000000;stroke-opacity:1;stroke-miterlimit:4;" d="M 326.796564 646.808417 L 264.42652 646.842129 " transform="matrix(0.462837,0,0,0.46349,34.551023,-189.898695)"/><path style="fill:none;stroke-width:0.838;stroke-linecap:butt;stroke-linejoin:miter;stroke:#000000;stroke-opacity:1;stroke-miterlimit:4;" d="M 11.013403 682.037053 L 25.015014 712.0741 " transform="matrix(0.462837,0,0,0.46349,34.551023,-189.898695)"/><path style="fill:none;stroke-width:0.838;stroke-linecap:butt;stroke-linejoin:miter;stroke:#000000;stroke-opacity:1;stroke-miterlimit:4;" d="M 10.810848 712.082528 L 24.998134 682.028625 " transform="matrix(0.462837,0,0,0.46349,34.551023,-189.898695)"/><path style="fill:none;stroke-width:0.838;stroke-linecap:butt;stroke-linejoin:miter;stroke:#000000;stroke-opacity:1;stroke-miterlimit:4;" d="M 214.294171 682.753425 L 227.021373 712.790472 " transform="matrix(0.462837,0,0,0.46349,34.551023,-189.898695)"/><path style="fill:none;stroke-width:0.838;stroke-linecap:butt;stroke-linejoin:miter;stroke:#000000;stroke-opacity:1;stroke-miterlimit:4;" d="M 214.31105 712.7989 L 227.004494 682.744997 " transform="matrix(0.462837,0,0,0.46349,34.551023,-189.898695)"/><path style="fill:none;stroke-width:0.838;stroke-linecap:butt;stroke-linejoin:miter;stroke:#000000;stroke-opacity:1;stroke-miterlimit:4;" d="M 11.013403 682.037053 L 10.810848 712.082528 L 25.015014 712.0741 L 24.998134 682.028625 Z M 11.013403 682.037053 " transform="matrix(0.462837,0,0,0.46349,34.551023,-189.898695)"/><path style="fill:none;stroke-width:0.838;stroke-linecap:butt;stroke-linejoin:miter;stroke:#000000;stroke-opacity:1;stroke-miterlimit:4;" d="M 213.770904 682.753425 L 213.568349 712.7989 L 227.764075 712.790472 L 227.755635 682.744997 Z M 213.770904 682.753425 " transform="matrix(0.462837,0,0,0.46349,34.551023,-189.898695)"/><path style="fill:none;stroke-width:0.838;stroke-linecap:butt;stroke-linejoin:miter;stroke:#000000;stroke-opacity:1;stroke-miterlimit:4;" d="M 418.950625 683.427657 L 431.677827 713.464704 " transform="matrix(0.462837,0,0,0.46349,34.551023,-189.898695)"/><path style="fill:none;stroke-width:0.838;stroke-linecap:butt;stroke-linejoin:miter;stroke:#000000;stroke-opacity:1;stroke-miterlimit:4;" d="M 419.001263 713.473132 L 431.694707 683.419229 " transform="matrix(0.462837,0,0,0.46349,34.551023,-189.898695)"/><path style="fill:none;stroke-width:0.838;stroke-linecap:butt;stroke-linejoin:miter;stroke:#000000;stroke-opacity:1;stroke-miterlimit:4;" d="M 418.385159 683.427657 L 418.182604 713.473132 L 432.386769 713.464704 L 432.36989 683.419229 Z M 418.385159 683.427657 " transform="matrix(0.462837,0,0,0.46349,34.551023,-189.898695)"/><g clip-rule="nonzero" clip-path="url(#454f1cf1ea)"><path style="fill:none;stroke-width:0.838;stroke-linecap:butt;stroke-linejoin:miter;stroke:#000000;stroke-opacity:1;stroke-miterlimit:4;" d="M 11.013403 682.037053 L 0.277991 681.994914 " transform="matrix(0.462837,0,0,0.46349,34.551023,-189.898695)"/></g><g clip-rule="nonzero" clip-path="url(#3ebabb9b26)"><path style="fill:none;stroke-width:0.838;stroke-linecap:butt;stroke-linejoin:miter;stroke:#000000;stroke-opacity:1;stroke-miterlimit:4;" d="M 10.912125 712.082528 L 0.277991 712.048816 " transform="matrix(0.462837,0,0,0.46349,34.551023,-189.898695)"/></g><g clip-rule="nonzero" clip-path="url(#7020d694af)"><path style="fill:none;stroke-width:0.838;stroke-linecap:butt;stroke-linejoin:miter;stroke:#000000;stroke-opacity:1;stroke-miterlimit:4;" d="M 0.277991 424.851158 L 662.970256 424.851158 L 662.970256 940.166874 L 0.277991 940.166874 Z M 0.277991 424.851158 " transform="matrix(0.462837,0,0,0.46349,34.551023,-189.898695)"/></g><g clip-rule="nonzero" clip-path="url(#336acf8a3e)"><path style="fill:none;stroke-width:0.838;stroke-linecap:butt;stroke-linejoin:miter;stroke:#000000;stroke-opacity:1;stroke-miterlimit:4;" d="M 96.280595 940.166874 L 96.272156 910.568077 " transform="matrix(0.462837,0,0,0.46349,34.551023,-189.898695)"/></g><path style="fill:none;stroke-width:0.838;stroke-linecap:butt;stroke-linejoin:miter;stroke:#000000;stroke-opacity:1;stroke-miterlimit:4;" d="M 609.875541 424.851158 L 609.875541 431.509201 L 611.014912 431.509201 L 611.006473 424.851158 " transform="matrix(0.462837,0,0,0.46349,34.551023,-189.898695)"/><path style="fill:none;stroke-width:0.838;stroke-linecap:butt;stroke-linejoin:miter;stroke:#000000;stroke-opacity:1;stroke-miterlimit:4;" d="M 592.320779 424.851158 C 591.561198 426.991845 591.164528 429.250523 591.172967 431.526057 " transform="matrix(0.462837,0,0,0.46349,34.551023,-189.898695)"/><path style="fill:none;stroke-width:0.838;stroke-linecap:butt;stroke-linejoin:miter;stroke:#000000;stroke-opacity:1;stroke-miterlimit:4;" d="M 591.172967 431.526057 C 591.164528 429.250523 590.776297 426.991845 590.008277 424.851158 " transform="matrix(0.462837,0,0,0.46349,34.551023,-189.898695)"/><path style="fill:none;stroke-width:0.838;stroke-linecap:butt;stroke-linejoin:miter;stroke:#000000;stroke-opacity:1;stroke-miterlimit:4;" d="M 572.453515 424.851158 L 572.461954 431.534485 L 571.322583 431.534485 L 571.322583 424.851158 " transform="matrix(0.462837,0,0,0.46349,34.551023,-189.898695)"/><path style="fill:none;stroke-width:0.838;stroke-linecap:butt;stroke-linejoin:miter;stroke:#000000;stroke-opacity:1;stroke-miterlimit:4;" d="M 468.137717 428.753277 L 468.137717 427.61551 L 487.979662 427.607082 L 487.979662 428.744849 Z M 468.137717 428.753277 " transform="matrix(0.462837,0,0,0.46349,34.551023,-189.898695)"/><path style="fill:none;stroke-width:0.838;stroke-linecap:butt;stroke-linejoin:miter;stroke:#000000;stroke-opacity:1;stroke-miterlimit:4;" d="M 468.525948 424.851158 C 468.264314 426.132199 468.137717 427.438524 468.137717 428.753277 " transform="matrix(0.462837,0,0,0.46349,34.551023,-189.898695)"/><path style="fill:none;stroke-width:0.838;stroke-linecap:butt;stroke-linejoin:miter;stroke:#000000;stroke-opacity:1;stroke-miterlimit:4;" d="M 552.898522 424.851158 L 552.898522 431.542913 L 554.316407 431.542913 L 554.316407 424.851158 " transform="matrix(0.462837,0,0,0.46349,34.551023,-189.898695)"/><path style="fill:none;stroke-width:0.838;stroke-linecap:butt;stroke-linejoin:miter;stroke:#000000;stroke-opacity:1;stroke-miterlimit:4;" d="M 526.768934 424.851158 C 526.237228 427.042413 525.967154 429.292663 525.967154 431.559769 " transform="matrix(0.462837,0,0,0.46349,34.551023,-189.898695)"/><g clip-rule="nonzero" clip-path="url(#e9471d70df)"><path style="fill:none;stroke-width:0.838;stroke-linecap:butt;stroke-linejoin:miter;stroke:#000000;stroke-opacity:1;stroke-miterlimit:4;" d="M 467.63977 940.166874 L 467.63977 934.478039 " transform="matrix(0.462837,0,0,0.46349,34.551023,-189.898695)"/></g><g clip-rule="nonzero" clip-path="url(#c0fc9ec4e1)"><path style="fill:none;stroke-width:0.838;stroke-linecap:butt;stroke-linejoin:miter;stroke:#000000;stroke-opacity:1;stroke-miterlimit:4;" d="M 552.679088 940.166874 L 552.670648 915.152857 L 467.62289 915.194996 " transform="matrix(0.462837,0,0,0.46349,34.551023,-189.898695)"/></g><path style="fill:none;stroke-width:0.838;stroke-linecap:butt;stroke-linejoin:miter;stroke:#000000;stroke-opacity:1;stroke-miterlimit:4;" d="M 664.480978 772.788715 C 664.480978 760.264851 654.319472 750.117655 641.794824 750.126083 " transform="matrix(0.462837,0,0,0.46349,34.551023,-189.898695)"/><path style="fill:none;stroke-width:0.838;stroke-linecap:butt;stroke-linejoin:miter;stroke:#000000;stroke-opacity:1;stroke-miterlimit:4;" d="M 641.794824 750.126083 L 642.816039 750.126083 L 642.824479 772.805571 L 641.803264 772.805571 Z M 641.794824 750.126083 " transform="matrix(0.462837,0,0,0.46349,34.551023,-189.898695)"/><path style="fill:none;stroke-width:0.838;stroke-linecap:butt;stroke-linejoin:miter;stroke:#000000;stroke-opacity:1;stroke-miterlimit:4;" d="M 656.142466 913.559983 L 656.142466 914.579759 L 630.628983 914.596615 L 630.628983 913.576839 Z M 656.142466 913.559983 " transform="matrix(0.462837,0,0,0.46349,34.551023,-189.898695)"/><g clip-rule="nonzero" clip-path="url(#f158dc0785)"><path style="fill:none;stroke-width:0.838;stroke-linecap:butt;stroke-linejoin:miter;stroke:#000000;stroke-opacity:1;stroke-miterlimit:4;" d="M 630.637423 939.088102 C 644.731871 939.079674 656.142466 927.651437 656.142466 913.559983 " transform="matrix(0.462837,0,0,0.46349,34.551023,-189.898695)"/></g><path style="fill:none;stroke-width:0.838;stroke-linecap:butt;stroke-linejoin:miter;stroke:#000000;stroke-opacity:1;stroke-miterlimit:4;" d="M 656.978006 890.526523 L 656.978006 889.506747 L 628.628753 889.515175 L 628.628753 890.534951 Z M 656.978006 890.526523 " transform="matrix(0.462837,0,0,0.46349,34.551023,-189.898695)"/><path style="fill:none;stroke-width:0.838;stroke-linecap:butt;stroke-linejoin:miter;stroke:#000000;stroke-opacity:1;stroke-miterlimit:4;" d="M 656.978006 890.526523 C 656.969566 874.867479 644.267683 862.183485 628.611873 862.191913 " transform="matrix(0.462837,0,0,0.46349,34.551023,-189.898695)"/><g clip-rule="nonzero" clip-path="url(#77fccdf57a)"><path style="fill:none;stroke-width:0.838;stroke-linecap:butt;stroke-linejoin:miter;stroke:#000000;stroke-opacity:1;stroke-miterlimit:4;" d="M 463.386116 933.062151 L 463.386116 934.478039 L 449.215709 934.486467 L 449.215709 933.070579 Z M 463.386116 933.062151 " transform="matrix(0.462837,0,0,0.46349,34.551023,-189.898695)"/></g><g clip-rule="nonzero" clip-path="url(#eadbe8ad24)"><path style="fill:none;stroke-width:0.838;stroke-linecap:butt;stroke-linejoin:miter;stroke:#000000;stroke-opacity:1;stroke-miterlimit:4;" d="M 463.377676 920.302306 C 455.942222 919.914622 449.60394 925.62874 449.215709 933.070579 C 449.19039 933.542542 449.19039 934.014504 449.215709 934.486467 " transform="matrix(0.462837,0,0,0.46349,34.551023,-189.898695)"/></g></g></svg>